HIERARCHY
ROOT Hips
{
	OFFSET -3.958830 18.904000 13.208200
	CHANNELS 6 Xposition Yposition Zposition Zrotation Yrotation Xrotation 
	JOINT LHipJoint
	{
		OFFSET 0.000000 0.000000 0.000000
		CHANNELS 3 Zrotation Yrotation Xrotation
		JOINT LeftUpLeg
		{
			OFFSET 1.800000 -1.400000 0.085000
			CHANNELS 3 Zrotation Yrotation Xrotation
			JOINT LeftLeg
			{
				OFFSET 2.215000 -6.000000 0.000000
				CHANNELS 3 Zrotation Yrotation Xrotation
				JOINT LeftFoot
				{
					OFFSET 2.500000 -6.900000 0.000000
					CHANNELS 3 Zrotation Yrotation Xrotation
					JOINT LeftToeBase
					{
						OFFSET 0.200000 -0.500000 1.950000
						CHANNELS 3 Zrotation Yrotation Xrotation
						End Site
						{
							OFFSET 0.000000 0.000000 0.000000
						}
					}
				}
			}
		}
	}
	JOINT RHipJoint
	{
		OFFSET 0.000000 0.000000 0.000000
		CHANNELS 3 Zrotation Yrotation Xrotation
		JOINT RightUpLeg
		{
			OFFSET -1.800000 -1.400000 0.085000
			CHANNELS 3 Zrotation Yrotation Xrotation
			JOINT RightLeg
			{
				OFFSET -2.215000 -6.000000 0.000000
				CHANNELS 3 Zrotation Yrotation Xrotation
				JOINT RightFoot
				{
					OFFSET -2.500000 -6.900000 0.000000
					CHANNELS 3 Zrotation Yrotation Xrotation
					JOINT RightToeBase
					{
						OFFSET -0.200000 -0.500000 1.950000
						CHANNELS 3 Zrotation Yrotation Xrotation
						End Site
						{
							OFFSET 0.000000 0.000000 0.000000
						}
					}
				}
			}
		}
	}
	JOINT LowerBack
	{
		OFFSET 0.000000 0.000000 0.000000
		CHANNELS 3 Zrotation Yrotation Xrotation
		JOINT Spine
		{
			OFFSET -0.087000 1.940000 -0.288900
			CHANNELS 3 Zrotation Yrotation Xrotation
			JOINT Spine1
			{
				OFFSET 0.000000 1.950000 0.060000
				CHANNELS 3 Zrotation Yrotation Xrotation
				JOINT Neck
				{
					OFFSET 0.000000 0.000000 0.000000
					CHANNELS 3 Zrotation Yrotation Xrotation
					JOINT Neck1
					{
						OFFSET 0.000000 1.600000 0.340000
						CHANNELS 3 Zrotation Yrotation Xrotation
						JOINT Head
						{
							OFFSET 0.000000 1.667000 -0.240000
							CHANNELS 3 Zrotation Yrotation Xrotation
							End Site
							{
								OFFSET 0.000000 0.000000 0.000000
							}
						}
					}
				}
				JOINT LeftShoulder
				{
					OFFSET 0.000000 0.000000 0.000000
					CHANNELS 3 Zrotation Yrotation Xrotation
					JOINT LeftArm
					{
						OFFSET 2.700000 1.550000 -0.730000
						CHANNELS 3 Zrotation Yrotation Xrotation
						JOINT LeftForeArm
						{
							OFFSET 5.450000 0.000000 0.000000
							CHANNELS 3 Zrotation Yrotation Xrotation
							JOINT LeftHand
							{
								OFFSET 3.450000 0.000000 0.000000
								CHANNELS 3 Zrotation Yrotation Xrotation
								JOINT LeftHandIndex1
								{
									OFFSET 0.750000 0.000000 0.000000
									CHANNELS 3 Zrotation Yrotation Xrotation
									End Site
									{
										OFFSET 0.000000 0.000000 0.000000
									}
								}
							}
						}
					}
				}
				JOINT RightShoulder
				{
					OFFSET 0.000000 0.000000 0.000000
					CHANNELS 3 Zrotation Yrotation Xrotation
					JOINT RightArm
					{
						OFFSET -2.700000 1.550000 -0.730000
						CHANNELS 3 Zrotation Yrotation Xrotation
						JOINT RightForeArm
						{
							OFFSET -5.450000 0.000000 0.000000
							CHANNELS 3 Zrotation Yrotation Xrotation
							JOINT RightHand
							{
								OFFSET -3.450000 0.000000 0.000000
								CHANNELS 3 Zrotation Yrotation Xrotation
								JOINT RightHandIndex1
								{
									OFFSET -0.750000 0.000000 0.000000
									CHANNELS 3 Zrotation Yrotation Xrotation
									End Site
									{
										OFFSET 0.000000 0.000000 0.000000
									}
								}
							}
						}
					}
				}
			}
		}
	}
}
MOTION
Frames: 4
Frame Time: 0.016667
4.461930 16.961910 11.503490 -13.918947 -72.850665 -30.176480 -15.425590 14.824995 1.687712 23.490665 -0.695754 -7.497448 37.131884 -9.422123 65.212516 3.181250 9.308784 0.914203 3.361150 3.783790 2.902720 17.966178 -8.522066 4.702265 -15.707699 18.829412 -14.205994 33.059728 -35.072173 66.838609 -4.108059 -11.921541 2.047527 1.740180 -4.331330 -1.222220 -2.937034 -5.595290 -7.825641 13.506852 -15.408599 77.933312 -7.328123 -12.043863 28.105242 8.216606 -2.894085 -22.327963 -41.769496 35.927110 75.617548 -49.165220 -8.231720 -74.165550 -1.609669 -51.428267 20.600651 -38.541520 -9.617473 -4.019856 -10.718381 -4.527434 0.248093 -1.635777 2.683030 -0.177780 -1.506690 1.305240 -0.513980 -13.206963 43.052590 7.062206 31.468492 31.486241 -42.094428 -104.804506 63.481293 -91.887023 1.794296 -0.283276 2.203910 -0.522010 -1.895240 -1.727470 
4.382060 17.154110 11.609080 -15.803120 -70.293551 -28.863171 -15.372563 14.974508 1.647103 22.756909 0.912485 -6.728608 39.178664 -9.767559 61.028710 3.005728 8.860052 0.979072 3.530840 3.943710 3.047440 17.972148 -8.699033 4.616548 -15.872161 18.896603 -9.677750 37.031044 -33.656842 61.420246 -3.934094 -11.193631 2.181768 1.853240 -4.412460 -1.253860 -2.967163 -5.604892 -7.653483 14.504269 -17.780714 77.475268 -9.180964 -14.317611 26.495058 9.411118 -1.946452 -22.244527 -45.680556 41.228459 76.393832 -46.799950 -11.008150 -74.992190 -8.195007 -52.198464 21.650656 -48.734444 -6.556585 -6.554034 -7.170846 -5.041993 0.455500 -1.529789 2.733599 -0.100760 -1.586220 1.358150 -0.545180 -8.917007 45.986530 6.874302 25.773800 33.929211 -35.791743 -111.711229 61.973888 -105.773276 1.959095 0.195199 2.225310 -0.508990 -1.985810 -1.711930 
4.289790 17.390940 11.641430 -13.022177 -66.581128 -31.656518 -15.328921 15.037389 1.549702 21.112025 2.664481 -4.884709 40.138489 -9.055343 54.476647 2.802743 7.949768 1.268484 3.684440 4.129550 3.036770 17.912709 -9.195540 4.619007 -16.881240 18.703243 -5.697899 39.244830 -30.908047 56.507385 -3.679458 -10.563523 2.319543 2.029840 -4.355820 -1.273460 -3.488769 -4.511759 -7.347225 18.540628 -19.856226 73.688930 -13.491731 -15.496121 28.441355 10.495842 -4.276618 -19.875665 -51.758956 42.533330 67.122310 -40.386790 -12.663860 -74.317810 -9.621105 -49.600486 22.483808 -59.075899 -4.165590 -11.026068 8.319968 -15.905037 -0.408644 -1.303260 2.866666 -0.138500 -1.586920 1.308140 -0.480360 -7.860132 46.490443 4.424794 22.041544 38.035446 -32.395533 -114.338960 59.272114 -106.984121 1.954661 -0.049505 2.236810 -0.508170 -2.100930 -1.613480 
4.187180 17.770690 11.578080 -10.012600 -60.901556 -36.564855 -15.160230 15.339596 1.528648 19.121936 4.254325 0.278021 40.921351 -7.645127 43.748105 2.491218 6.453124 1.776436 3.778840 4.275350 2.981240 17.980000 -9.697429 4.324758 -15.539798 16.699391 1.895479 36.932606 -26.232035 52.357103 -3.349191 -9.855618 2.522741 2.193440 -4.239110 -1.311920 -3.272239 -4.760982 -7.104985 20.017527 -19.057785 72.617936 -14.084641 -15.469710 31.514805 10.847915 -6.907473 -17.467960 -57.492458 39.937408 57.015421 -33.323020 -13.590770 -72.441580 -9.938465 -47.753258 22.305309 -58.814873 -4.855004 -13.390377 3.119085 -20.970767 -0.947494 -1.240883 2.892159 -0.208780 -1.536310 1.206820 -0.422430 -6.608537 48.369685 0.973302 13.153518 35.079373 -27.070140 -118.211836 53.881004 -108.734406 1.707092 -0.610668 2.211210 -0.487460 -2.177370 -1.526210 
